<?xml version="1.0" encoding="UTF-8" standalone="no"?>
<!DOCTYPE svg PUBLIC "-//W3C//DTD SVG 1.1//EN" "http://www.w3.org/Graphics/SVG/1.1/DTD/svg11.dtd">
<svg width="100%" height="100%" viewBox="0 0 1280 800" version="1.1" xmlns="http://www.w3.org/2000/svg" xmlns:xlink="http://www.w3.org/1999/xlink" xml:space="preserve" xmlns:serif="http://www.serif.com/" style="fill-rule:evenodd;clip-rule:evenodd;stroke-linejoin:round;stroke-miterlimit:2;">
    <g transform="matrix(1,0,0,1.02575,0,-5.36032)">
        <path d="M725.97,335.429C759.949,281.223 814.48,234.07 879.337,223.674C920.549,217.067 971.181,231.108 977.333,278.16C981.018,306.34 969.209,335.551 955.596,359.385C922.364,417.568 872.25,467.379 822.192,511.134C801.428,529.284 780.304,545.705 758.012,561.841C750.254,567.457 742.352,572.874 734.369,578.165C727.423,582.77 720.327,587.146 713.234,591.521C691.638,568.343 670.039,545.163 648.856,521.608C629.775,500.39 610.81,479.057 592.45,457.212C574.948,436.389 557.728,415.308 541.294,393.632C523.406,370.038 528.164,335.142 535.916,308.874C545.434,276.618 563.102,244.961 587.664,221.733C599.944,210.12 615.045,199.674 632.078,196.747C658.157,192.266 677.164,208.601 694.753,225.43C725.129,254.495 736.256,294.544 725.97,335.429Z" style="fill:rgb(244,119,119);"/>
    </g>
</svg>
